<?xml version="1.0" encoding="UTF-8" standalone="no"?>
<!DOCTYPE svg PUBLIC "-//W3C//DTD SVG 1.1//EN"
 "http://www.w3.org/Graphics/SVG/1.1/DTD/svg11.dtd">
<!-- Generated by graphviz version 2.40.1 (20161225.0304)
 -->
<!-- Title: dependencies Pages: 1 -->
<svg width="785pt" height="211pt"
 viewBox="0.00 0.00 785.00 211.00" xmlns="http://www.w3.org/2000/svg" xmlns:xlink="http://www.w3.org/1999/xlink">
<g id="graph0" class="graph" transform="scale(1 1) rotate(0) translate(4 207)">
<title>dependencies</title>
<polygon fill="#ffffff" stroke="transparent" points="-4,4 -4,-207 781,-207 781,4 -4,4"/>
<text text-anchor="start" x="367.5091" y="-42.4" font-family="sans-serif" font-weight="bold" font-size="14.00" fill="#000000">Legend</text>
<polygon fill="#ffffb3" stroke="transparent" points="154.5,-10 154.5,-30 174.5,-30 174.5,-10 154.5,-10"/>
<text text-anchor="start" x="178.129" y="-15.4" font-family="sans-serif" font-size="14.00" fill="#000000"> &#160;Declarations</text>
<polygon fill="#8dd3c7" stroke="transparent" points="267.5,-10 267.5,-30 287.5,-30 287.5,-10 267.5,-10"/>
<text text-anchor="start" x="291.2251" y="-15.4" font-family="sans-serif" font-size="14.00" fill="#000000"> &#160;Module</text>
<polygon fill="#80b1d3" stroke="transparent" points="353.5,-10 353.5,-30 373.5,-30 373.5,-10 353.5,-10"/>
<text text-anchor="start" x="377.2812" y="-15.4" font-family="sans-serif" font-size="14.00" fill="#000000"> &#160;Bootstrap</text>
<polygon fill="#fdb462" stroke="transparent" points="450.5,-10 450.5,-30 470.5,-30 470.5,-10 450.5,-10"/>
<text text-anchor="start" x="474.1732" y="-15.4" font-family="sans-serif" font-size="14.00" fill="#000000"> &#160;Providers</text>
<polygon fill="#fb8072" stroke="transparent" points="546.5,-10 546.5,-30 566.5,-30 566.5,-10 546.5,-10"/>
<text text-anchor="start" x="570.2258" y="-15.4" font-family="sans-serif" font-size="14.00" fill="#000000"> &#160;Exports</text>
<g id="clust1" class="cluster">
<title>cluster_AppModule</title>
<polygon fill="none" stroke="#000000" stroke-dasharray="1,5" points="8,-70 8,-195 769,-195 769,-70 8,-70"/>
</g>
<g id="clust3" class="cluster">
<title>cluster_AppModule_imports</title>
<polygon fill="none" stroke="#000000" points="154,-78 154,-130 761,-130 761,-78 154,-78"/>
</g>
<g id="clust6" class="cluster">
<title>cluster_AppModule_providers</title>
<polygon fill="none" stroke="#000000" points="16,-78 16,-130 146,-130 146,-78 16,-78"/>
</g>
<!-- AuthModule -->
<g id="node1" class="node">
<title>AuthModule</title>
<polygon fill="#8dd3c7" stroke="#000000" points="752.5482,-122 749.5482,-126 728.5482,-126 725.5482,-122 665.4518,-122 665.4518,-86 752.5482,-86 752.5482,-122"/>
<text text-anchor="middle" x="709" y="-99.8" font-family="Times,serif" font-size="14.00" fill="#000000">AuthModule</text>
</g>
<!-- AppModule -->
<g id="node6" class="node">
<title>AppModule</title>
<polygon fill="#8dd3c7" stroke="#000000" points="443.6571,-187 440.6571,-191 419.6571,-191 416.6571,-187 360.3429,-187 360.3429,-151 443.6571,-151 443.6571,-187"/>
<text text-anchor="middle" x="402" y="-164.8" font-family="Times,serif" font-size="14.00" fill="#000000">AppModule</text>
</g>
<!-- AuthModule&#45;&gt;AppModule -->
<g id="edge1" class="edge">
<title>AuthModule&#45;&gt;AppModule</title>
<path fill="none" stroke="#000000" d="M709,-122.2843C709,-143.3211 709,-175 709,-175 709,-175 453.7229,-175 453.7229,-175"/>
<polygon fill="#000000" stroke="#000000" points="453.7229,-171.5001 443.7229,-175 453.7229,-178.5001 453.7229,-171.5001"/>
</g>
<!-- CommonModule -->
<g id="node2" class="node">
<title>CommonModule</title>
<polygon fill="#8dd3c7" stroke="#000000" points="646.6681,-122 643.6681,-126 622.6681,-126 619.6681,-122 535.3319,-122 535.3319,-86 646.6681,-86 646.6681,-122"/>
<text text-anchor="middle" x="591" y="-99.8" font-family="Times,serif" font-size="14.00" fill="#000000">CommonModule</text>
</g>
<!-- CommonModule&#45;&gt;AppModule -->
<g id="edge2" class="edge">
<title>CommonModule&#45;&gt;AppModule</title>
<path fill="none" stroke="#000000" d="M591,-122.0225C591,-139.3734 591,-163 591,-163 591,-163 453.9452,-163 453.9452,-163"/>
<polygon fill="#000000" stroke="#000000" points="453.9453,-159.5001 443.9452,-163 453.9452,-166.5001 453.9453,-159.5001"/>
</g>
<!-- PatientModule -->
<g id="node3" class="node">
<title>PatientModule</title>
<polygon fill="#8dd3c7" stroke="#000000" points="517.4344,-122 514.4344,-126 493.4344,-126 490.4344,-122 418.5656,-122 418.5656,-86 517.4344,-86 517.4344,-122"/>
<text text-anchor="middle" x="468" y="-99.8" font-family="Times,serif" font-size="14.00" fill="#000000">PatientModule</text>
</g>
<!-- PatientModule&#45;&gt;AppModule -->
<g id="edge3" class="edge">
<title>PatientModule&#45;&gt;AppModule</title>
<path fill="none" stroke="#000000" d="M431.3058,-122.1061C431.3058,-122.1061 431.3058,-140.991 431.3058,-140.991"/>
<polygon fill="#000000" stroke="#000000" points="427.8058,-140.9909 431.3058,-150.991 434.8058,-140.991 427.8058,-140.9909"/>
</g>
<!-- ProfessionalModule -->
<g id="node4" class="node">
<title>ProfessionalModule</title>
<polygon fill="#8dd3c7" stroke="#000000" points="400.2534,-122 397.2534,-126 376.2534,-126 373.2534,-122 271.7466,-122 271.7466,-86 400.2534,-86 400.2534,-122"/>
<text text-anchor="middle" x="336" y="-99.8" font-family="Times,serif" font-size="14.00" fill="#000000">ProfessionalModule</text>
</g>
<!-- ProfessionalModule&#45;&gt;AppModule -->
<g id="edge4" class="edge">
<title>ProfessionalModule&#45;&gt;AppModule</title>
<path fill="none" stroke="#000000" d="M380.2742,-122.1061C380.2742,-122.1061 380.2742,-140.991 380.2742,-140.991"/>
<polygon fill="#000000" stroke="#000000" points="376.7743,-140.9909 380.2742,-150.991 383.7743,-140.991 376.7743,-140.9909"/>
</g>
<!-- UsersModule -->
<g id="node5" class="node">
<title>UsersModule</title>
<polygon fill="#8dd3c7" stroke="#000000" points="253.9218,-122 250.9218,-126 229.9218,-126 226.9218,-122 162.0782,-122 162.0782,-86 253.9218,-86 253.9218,-122"/>
<text text-anchor="middle" x="208" y="-99.8" font-family="Times,serif" font-size="14.00" fill="#000000">UsersModule</text>
</g>
<!-- UsersModule&#45;&gt;AppModule -->
<g id="edge5" class="edge">
<title>UsersModule&#45;&gt;AppModule</title>
<path fill="none" stroke="#000000" d="M208,-122.0225C208,-139.3734 208,-163 208,-163 208,-163 349.9049,-163 349.9049,-163"/>
<polygon fill="#000000" stroke="#000000" points="349.9049,-166.5001 359.9049,-163 349.9049,-159.5001 349.9049,-166.5001"/>
</g>
<!-- AppService -->
<g id="node7" class="node">
<title>AppService</title>
<ellipse fill="#fdb462" stroke="#000000" cx="81" cy="-104" rx="56.7406" ry="18"/>
<text text-anchor="middle" x="81" y="-99.8" font-family="Times,serif" font-size="14.00" fill="#000000">AppService</text>
</g>
<!-- AppService&#45;&gt;AppModule -->
<g id="edge6" class="edge">
<title>AppService&#45;&gt;AppModule</title>
<path fill="none" stroke="#000000" d="M81,-122.2843C81,-143.3211 81,-175 81,-175 81,-175 350.0349,-175 350.0349,-175"/>
<polygon fill="#000000" stroke="#000000" points="350.0349,-178.5001 360.0349,-175 350.0348,-171.5001 350.0349,-178.5001"/>
</g>
</g>
</svg>
