<?xml version="1.0" encoding="UTF-8" standalone="no"?>
<!DOCTYPE svg PUBLIC "-//W3C//DTD SVG 1.1//EN"
 "http://www.w3.org/Graphics/SVG/1.1/DTD/svg11.dtd">
<!-- Generated by graphviz version 2.40.1 (20161225.0304)
 -->
<!-- Title: dependencies Pages: 1 -->
<svg width="569pt" height="211pt"
 viewBox="0.00 0.00 569.00 211.00" xmlns="http://www.w3.org/2000/svg" xmlns:xlink="http://www.w3.org/1999/xlink">
<g id="graph0" class="graph" transform="scale(1 1) rotate(0) translate(4 207)">
<title>dependencies</title>
<polygon fill="#ffffff" stroke="transparent" points="-4,4 -4,-207 565,-207 565,4 -4,4"/>
<text text-anchor="start" x="259.5091" y="-42.4" font-family="sans-serif" font-weight="bold" font-size="14.00" fill="#000000">Legend</text>
<polygon fill="#ffffb3" stroke="transparent" points="46.5,-10 46.5,-30 66.5,-30 66.5,-10 46.5,-10"/>
<text text-anchor="start" x="70.129" y="-15.4" font-family="sans-serif" font-size="14.00" fill="#000000"> &#160;Declarations</text>
<polygon fill="#8dd3c7" stroke="transparent" points="159.5,-10 159.5,-30 179.5,-30 179.5,-10 159.5,-10"/>
<text text-anchor="start" x="183.2251" y="-15.4" font-family="sans-serif" font-size="14.00" fill="#000000"> &#160;Module</text>
<polygon fill="#80b1d3" stroke="transparent" points="245.5,-10 245.5,-30 265.5,-30 265.5,-10 245.5,-10"/>
<text text-anchor="start" x="269.2812" y="-15.4" font-family="sans-serif" font-size="14.00" fill="#000000"> &#160;Bootstrap</text>
<polygon fill="#fdb462" stroke="transparent" points="342.5,-10 342.5,-30 362.5,-30 362.5,-10 342.5,-10"/>
<text text-anchor="start" x="366.1732" y="-15.4" font-family="sans-serif" font-size="14.00" fill="#000000"> &#160;Providers</text>
<polygon fill="#fb8072" stroke="transparent" points="438.5,-10 438.5,-30 458.5,-30 458.5,-10 438.5,-10"/>
<text text-anchor="start" x="462.2258" y="-15.4" font-family="sans-serif" font-size="14.00" fill="#000000"> &#160;Exports</text>
<g id="clust1" class="cluster">
<title>cluster_AppModule</title>
<polygon fill="none" stroke="#000000" stroke-dasharray="1,5" points="8,-70 8,-195 553,-195 553,-70 8,-70"/>
</g>
<g id="clust3" class="cluster">
<title>cluster_AppModule_imports</title>
<polygon fill="none" stroke="#000000" points="154,-78 154,-130 545,-130 545,-78 154,-78"/>
</g>
<g id="clust6" class="cluster">
<title>cluster_AppModule_providers</title>
<polygon fill="none" stroke="#000000" points="16,-78 16,-130 146,-130 146,-78 16,-78"/>
</g>
<!-- CommonModule -->
<g id="node1" class="node">
<title>CommonModule</title>
<polygon fill="#8dd3c7" stroke="#000000" points="536.6681,-122 533.6681,-126 512.6681,-126 509.6681,-122 425.3319,-122 425.3319,-86 536.6681,-86 536.6681,-122"/>
<text text-anchor="middle" x="481" y="-99.8" font-family="Times,serif" font-size="14.00" fill="#000000">CommonModule</text>
</g>
<!-- AppModule -->
<g id="node4" class="node">
<title>AppModule</title>
<polygon fill="#8dd3c7" stroke="#000000" points="333.6571,-187 330.6571,-191 309.6571,-191 306.6571,-187 250.3429,-187 250.3429,-151 333.6571,-151 333.6571,-187"/>
<text text-anchor="middle" x="292" y="-164.8" font-family="Times,serif" font-size="14.00" fill="#000000">AppModule</text>
</g>
<!-- CommonModule&#45;&gt;AppModule -->
<g id="edge1" class="edge">
<title>CommonModule&#45;&gt;AppModule</title>
<path fill="none" stroke="#000000" d="M481,-122.1061C481,-141.3391 481,-169 481,-169 481,-169 343.9452,-169 343.9452,-169"/>
<polygon fill="#000000" stroke="#000000" points="343.9453,-165.5001 333.9452,-169 343.9452,-172.5001 343.9453,-165.5001"/>
</g>
<!-- PatientModule -->
<g id="node2" class="node">
<title>PatientModule</title>
<polygon fill="#8dd3c7" stroke="#000000" points="407.4344,-122 404.4344,-126 383.4344,-126 380.4344,-122 308.5656,-122 308.5656,-86 407.4344,-86 407.4344,-122"/>
<text text-anchor="middle" x="358" y="-99.8" font-family="Times,serif" font-size="14.00" fill="#000000">PatientModule</text>
</g>
<!-- PatientModule&#45;&gt;AppModule -->
<g id="edge2" class="edge">
<title>PatientModule&#45;&gt;AppModule</title>
<path fill="none" stroke="#000000" d="M321.3058,-122.1061C321.3058,-122.1061 321.3058,-140.991 321.3058,-140.991"/>
<polygon fill="#000000" stroke="#000000" points="317.8058,-140.9909 321.3058,-150.991 324.8058,-140.991 317.8058,-140.9909"/>
</g>
<!-- ProfessionalModule -->
<g id="node3" class="node">
<title>ProfessionalModule</title>
<polygon fill="#8dd3c7" stroke="#000000" points="290.2534,-122 287.2534,-126 266.2534,-126 263.2534,-122 161.7466,-122 161.7466,-86 290.2534,-86 290.2534,-122"/>
<text text-anchor="middle" x="226" y="-99.8" font-family="Times,serif" font-size="14.00" fill="#000000">ProfessionalModule</text>
</g>
<!-- ProfessionalModule&#45;&gt;AppModule -->
<g id="edge3" class="edge">
<title>ProfessionalModule&#45;&gt;AppModule</title>
<path fill="none" stroke="#000000" d="M270.2742,-122.1061C270.2742,-122.1061 270.2742,-140.991 270.2742,-140.991"/>
<polygon fill="#000000" stroke="#000000" points="266.7743,-140.9909 270.2742,-150.991 273.7743,-140.991 266.7743,-140.9909"/>
</g>
<!-- AppService -->
<g id="node5" class="node">
<title>AppService</title>
<ellipse fill="#fdb462" stroke="#000000" cx="81" cy="-104" rx="56.7406" ry="18"/>
<text text-anchor="middle" x="81" y="-99.8" font-family="Times,serif" font-size="14.00" fill="#000000">AppService</text>
</g>
<!-- AppService&#45;&gt;AppModule -->
<g id="edge4" class="edge">
<title>AppService&#45;&gt;AppModule</title>
<path fill="none" stroke="#000000" d="M81,-122.1061C81,-141.3391 81,-169 81,-169 81,-169 240.3132,-169 240.3132,-169"/>
<polygon fill="#000000" stroke="#000000" points="240.3132,-172.5001 250.3132,-169 240.3132,-165.5001 240.3132,-172.5001"/>
</g>
</g>
</svg>
