<?xml version="1.0" encoding="UTF-8" standalone="no"?>
<!DOCTYPE svg PUBLIC "-//W3C//DTD SVG 1.1//EN"
 "http://www.w3.org/Graphics/SVG/1.1/DTD/svg11.dtd">
<!-- Generated by graphviz version 2.40.1 (20161225.0304)
 -->
<!-- Title: dependencies Pages: 1 -->
<svg width="1237pt" height="363pt"
 viewBox="0.00 0.00 1237.00 363.00" xmlns="http://www.w3.org/2000/svg" xmlns:xlink="http://www.w3.org/1999/xlink">
<g id="graph0" class="graph" transform="scale(1 1) rotate(0) translate(4 359)">
<title>dependencies</title>
<polygon fill="#ffffff" stroke="transparent" points="-4,4 -4,-359 1233,-359 1233,4 -4,4"/>
<text text-anchor="start" x="593.5091" y="-42.4" font-family="sans-serif" font-weight="bold" font-size="14.00" fill="#000000">Legend</text>
<polygon fill="#ffffb3" stroke="transparent" points="380.5,-10 380.5,-30 400.5,-30 400.5,-10 380.5,-10"/>
<text text-anchor="start" x="404.129" y="-15.4" font-family="sans-serif" font-size="14.00" fill="#000000"> &#160;Declarations</text>
<polygon fill="#8dd3c7" stroke="transparent" points="493.5,-10 493.5,-30 513.5,-30 513.5,-10 493.5,-10"/>
<text text-anchor="start" x="517.2251" y="-15.4" font-family="sans-serif" font-size="14.00" fill="#000000"> &#160;Module</text>
<polygon fill="#80b1d3" stroke="transparent" points="579.5,-10 579.5,-30 599.5,-30 599.5,-10 579.5,-10"/>
<text text-anchor="start" x="603.2812" y="-15.4" font-family="sans-serif" font-size="14.00" fill="#000000"> &#160;Bootstrap</text>
<polygon fill="#fdb462" stroke="transparent" points="676.5,-10 676.5,-30 696.5,-30 696.5,-10 676.5,-10"/>
<text text-anchor="start" x="700.1732" y="-15.4" font-family="sans-serif" font-size="14.00" fill="#000000"> &#160;Providers</text>
<polygon fill="#fb8072" stroke="transparent" points="772.5,-10 772.5,-30 792.5,-30 792.5,-10 772.5,-10"/>
<text text-anchor="start" x="796.2258" y="-15.4" font-family="sans-serif" font-size="14.00" fill="#000000"> &#160;Exports</text>
<g id="clust1" class="cluster">
<title>cluster_AppModule</title>
<polygon fill="none" stroke="#000000" stroke-dasharray="1,5" points="298,-146 298,-347 953,-347 953,-146 298,-146"/>
</g>
<g id="clust3" class="cluster">
<title>cluster_AppModule_imports</title>
<polygon fill="none" stroke="#000000" points="444,-154 444,-282 945,-282 945,-154 444,-154"/>
</g>
<g id="clust6" class="cluster">
<title>cluster_AppModule_providers</title>
<polygon fill="none" stroke="#000000" points="306,-230 306,-282 436,-282 436,-230 306,-230"/>
</g>
<g id="clust7" class="cluster">
<title>cluster_AuthModule</title>
<polygon fill="none" stroke="#000000" stroke-dasharray="1,5" points="8,-146 8,-214 290,-214 290,-146 8,-146"/>
</g>
<g id="clust12" class="cluster">
<title>cluster_AuthModule_providers</title>
<polygon fill="none" stroke="#000000" points="16,-154 16,-206 282,-206 282,-154 16,-154"/>
</g>
<g id="clust19" class="cluster">
<title>cluster_PatientModule</title>
<polygon fill="none" stroke="#000000" stroke-dasharray="1,5" points="516,-70 516,-138 682,-138 682,-70 516,-70"/>
</g>
<g id="clust24" class="cluster">
<title>cluster_PatientModule_providers</title>
<polygon fill="none" stroke="#000000" points="524,-78 524,-130 674,-130 674,-78 524,-78"/>
</g>
<g id="clust25" class="cluster">
<title>cluster_ProfessionalModule</title>
<polygon fill="none" stroke="#000000" stroke-dasharray="1,5" points="690,-70 690,-138 898,-138 898,-70 690,-70"/>
</g>
<g id="clust30" class="cluster">
<title>cluster_ProfessionalModule_providers</title>
<polygon fill="none" stroke="#000000" points="698,-78 698,-130 890,-130 890,-78 698,-78"/>
</g>
<g id="clust31" class="cluster">
<title>cluster_UsersModule</title>
<polygon fill="none" stroke="#000000" stroke-dasharray="1,5" points="961,-222 961,-290 1221,-290 1221,-222 961,-222"/>
</g>
<g id="clust34" class="cluster">
<title>cluster_UsersModule_exports</title>
<polygon fill="none" stroke="#000000" points="1109,-230 1109,-282 1213,-282 1213,-230 1109,-230"/>
</g>
<g id="clust36" class="cluster">
<title>cluster_UsersModule_providers</title>
<polygon fill="none" stroke="#000000" points="969,-230 969,-282 1101,-282 1101,-230 969,-230"/>
</g>
<!-- AuthModule -->
<g id="node1" class="node">
<title>AuthModule</title>
<polygon fill="#8dd3c7" stroke="#000000" points="565.5482,-274 562.5482,-278 541.5482,-278 538.5482,-274 478.4518,-274 478.4518,-238 565.5482,-238 565.5482,-274"/>
<text text-anchor="middle" x="522" y="-251.8" font-family="Times,serif" font-size="14.00" fill="#000000">AuthModule</text>
</g>
<!-- AppModule -->
<g id="node6" class="node">
<title>AppModule</title>
<polygon fill="#8dd3c7" stroke="#000000" points="652.6571,-339 649.6571,-343 628.6571,-343 625.6571,-339 569.3429,-339 569.3429,-303 652.6571,-303 652.6571,-339"/>
<text text-anchor="middle" x="611" y="-316.8" font-family="Times,serif" font-size="14.00" fill="#000000">AppModule</text>
</g>
<!-- AuthModule&#45;&gt;AppModule -->
<g id="edge1" class="edge">
<title>AuthModule&#45;&gt;AppModule</title>
<path fill="none" stroke="#000000" d="M565.795,-265C570.3622,-265 573.3756,-265 573.3756,-265 573.3756,-265 573.3756,-292.973 573.3756,-292.973"/>
<polygon fill="#000000" stroke="#000000" points="569.8757,-292.973 573.3756,-302.973 576.8757,-292.973 569.8757,-292.973"/>
</g>
<!-- CommonModule -->
<g id="node2" class="node">
<title>CommonModule</title>
<polygon fill="#8dd3c7" stroke="#000000" points="563.6681,-198 560.6681,-202 539.6681,-202 536.6681,-198 452.3319,-198 452.3319,-162 563.6681,-162 563.6681,-198"/>
<text text-anchor="middle" x="508" y="-175.8" font-family="Times,serif" font-size="14.00" fill="#000000">CommonModule</text>
</g>
<!-- CommonModule&#45;&gt;AppModule -->
<g id="edge2" class="edge">
<title>CommonModule&#45;&gt;AppModule</title>
<path fill="none" stroke="#000000" d="M563.8328,-180C571.9217,-180 577.5795,-180 577.5795,-180 577.5795,-180 577.5795,-292.8554 577.5795,-292.8554"/>
<polygon fill="#000000" stroke="#000000" points="574.0796,-292.8553 577.5795,-302.8554 581.0796,-292.8554 574.0796,-292.8553"/>
</g>
<!-- PatientModule -->
<g id="node3" class="node">
<title>PatientModule</title>
<polygon fill="#8dd3c7" stroke="#000000" points="680.4344,-198 677.4344,-202 656.4344,-202 653.4344,-198 581.5656,-198 581.5656,-162 680.4344,-162 680.4344,-198"/>
<text text-anchor="middle" x="631" y="-175.8" font-family="Times,serif" font-size="14.00" fill="#000000">PatientModule</text>
</g>
<!-- PatientModule&#45;&gt;AppModule -->
<g id="edge3" class="edge">
<title>PatientModule&#45;&gt;AppModule</title>
<path fill="none" stroke="#000000" d="M617.3058,-198.1446C617.3058,-198.1446 617.3058,-292.925 617.3058,-292.925"/>
<polygon fill="#000000" stroke="#000000" points="613.8058,-292.925 617.3058,-302.925 620.8058,-292.925 613.8058,-292.925"/>
</g>
<!-- ProfessionalModule -->
<g id="node4" class="node">
<title>ProfessionalModule</title>
<polygon fill="#8dd3c7" stroke="#000000" points="827.2534,-198 824.2534,-202 803.2534,-202 800.2534,-198 698.7466,-198 698.7466,-162 827.2534,-162 827.2534,-198"/>
<text text-anchor="middle" x="763" y="-175.8" font-family="Times,serif" font-size="14.00" fill="#000000">ProfessionalModule</text>
</g>
<!-- ProfessionalModule&#45;&gt;AppModule -->
<g id="edge4" class="edge">
<title>ProfessionalModule&#45;&gt;AppModule</title>
<path fill="none" stroke="#000000" d="M763,-198.2067C763,-235.0559 763,-315 763,-315 763,-315 662.937,-315 662.937,-315"/>
<polygon fill="#000000" stroke="#000000" points="662.9371,-311.5001 652.937,-315 662.937,-318.5001 662.9371,-311.5001"/>
</g>
<!-- UsersModule -->
<g id="node5" class="node">
<title>UsersModule</title>
<polygon fill="#8dd3c7" stroke="#000000" points="936.9218,-198 933.9218,-202 912.9218,-202 909.9218,-198 845.0782,-198 845.0782,-162 936.9218,-162 936.9218,-198"/>
<text text-anchor="middle" x="891" y="-175.8" font-family="Times,serif" font-size="14.00" fill="#000000">UsersModule</text>
</g>
<!-- UsersModule&#45;&gt;AuthModule -->
<g id="edge7" class="edge">
<title>UsersModule&#45;&gt;AuthModule</title>
<path fill="none" stroke="#000000" d="M868.1448,-198.308C868.1448,-218.1455 868.1448,-247 868.1448,-247 868.1448,-247 575.8395,-247 575.8395,-247"/>
<polygon fill="#000000" stroke="#000000" points="575.8395,-243.5001 565.8395,-247 575.8394,-250.5001 575.8395,-243.5001"/>
</g>
<!-- UsersModule&#45;&gt;AppModule -->
<g id="edge5" class="edge">
<title>UsersModule&#45;&gt;AppModule</title>
<path fill="none" stroke="#000000" d="M891,-198.0251C891,-237.2783 891,-327 891,-327 891,-327 662.9188,-327 662.9188,-327"/>
<polygon fill="#000000" stroke="#000000" points="662.9189,-323.5001 652.9188,-327 662.9188,-330.5001 662.9189,-323.5001"/>
</g>
<!-- UserService  -->
<g id="node12" class="node">
<title>UserService </title>
<polygon fill="#fb8072" stroke="#000000" points="1204.9041,-274 1117.0959,-274 1117.0959,-238 1204.9041,-238 1204.9041,-274"/>
<text text-anchor="middle" x="1161" y="-251.8" font-family="Times,serif" font-size="14.00" fill="#000000">UserService </text>
</g>
<!-- UsersModule&#45;&gt;UserService  -->
<g id="edge12" class="edge">
<title>UsersModule&#45;&gt;UserService </title>
<path fill="none" stroke="#000000" stroke-dasharray="5,2" d="M936.8018,-180C1013.834,-180 1161,-180 1161,-180 1161,-180 1161,-227.9891 1161,-227.9891"/>
<polygon fill="#000000" stroke="#000000" points="1157.5001,-227.989 1161,-237.9891 1164.5001,-227.9891 1157.5001,-227.989"/>
</g>
<!-- AppService -->
<g id="node7" class="node">
<title>AppService</title>
<ellipse fill="#fdb462" stroke="#000000" cx="371" cy="-256" rx="56.7406" ry="18"/>
<text text-anchor="middle" x="371" y="-251.8" font-family="Times,serif" font-size="14.00" fill="#000000">AppService</text>
</g>
<!-- AppService&#45;&gt;AppModule -->
<g id="edge6" class="edge">
<title>AppService&#45;&gt;AppModule</title>
<path fill="none" stroke="#000000" d="M371,-274.1061C371,-293.3391 371,-321 371,-321 371,-321 559.1952,-321 559.1952,-321"/>
<polygon fill="#000000" stroke="#000000" points="559.1952,-324.5001 569.1952,-321 559.1952,-317.5001 559.1952,-324.5001"/>
</g>
<!-- AuthService -->
<g id="node8" class="node">
<title>AuthService</title>
<ellipse fill="#fdb462" stroke="#000000" cx="215" cy="-180" rx="59.1083" ry="18"/>
<text text-anchor="middle" x="215" y="-175.8" font-family="Times,serif" font-size="14.00" fill="#000000">AuthService</text>
</g>
<!-- AuthService&#45;&gt;AuthModule -->
<g id="edge8" class="edge">
<title>AuthService&#45;&gt;AuthModule</title>
<path fill="none" stroke="#000000" d="M274.3822,-180C341.0115,-180 439.8932,-180 439.8932,-180 439.8932,-180 439.8932,-256 439.8932,-256 439.8932,-256 468.0621,-256 468.0621,-256"/>
<polygon fill="#000000" stroke="#000000" points="468.0622,-259.5001 478.0621,-256 468.0621,-252.5001 468.0622,-259.5001"/>
</g>
<!-- JwtStrategy -->
<g id="node9" class="node">
<title>JwtStrategy</title>
<ellipse fill="#fdb462" stroke="#000000" cx="81" cy="-180" rx="56.7561" ry="18"/>
<text text-anchor="middle" x="81" y="-175.8" font-family="Times,serif" font-size="14.00" fill="#000000">JwtStrategy</text>
</g>
<!-- JwtStrategy&#45;&gt;AuthModule -->
<g id="edge9" class="edge">
<title>JwtStrategy&#45;&gt;AuthModule</title>
<path fill="none" stroke="#000000" d="M81,-198.1097C81,-207.897 81,-218 81,-218 81,-218 521.0302,-218 521.0302,-218 521.0302,-218 521.0302,-227.8903 521.0302,-227.8903"/>
<polygon fill="#000000" stroke="#000000" points="517.5302,-227.8903 521.0302,-237.8903 524.5302,-227.8904 517.5302,-227.8903"/>
</g>
<!-- PatientService -->
<g id="node10" class="node">
<title>PatientService</title>
<ellipse fill="#fdb462" stroke="#000000" cx="599" cy="-104" rx="66.6267" ry="18"/>
<text text-anchor="middle" x="599" y="-99.8" font-family="Times,serif" font-size="14.00" fill="#000000">PatientService</text>
</g>
<!-- PatientService&#45;&gt;PatientModule -->
<g id="edge10" class="edge">
<title>PatientService&#45;&gt;PatientModule</title>
<path fill="none" stroke="#000000" d="M623.7982,-120.8669C623.7982,-120.8669 623.7982,-151.8535 623.7982,-151.8535"/>
<polygon fill="#000000" stroke="#000000" points="620.2983,-151.8534 623.7982,-161.8535 627.2983,-151.8535 620.2983,-151.8534"/>
</g>
<!-- ProfessionalService -->
<g id="node11" class="node">
<title>ProfessionalService</title>
<ellipse fill="#fdb462" stroke="#000000" cx="794" cy="-104" rx="87.9549" ry="18"/>
<text text-anchor="middle" x="794" y="-99.8" font-family="Times,serif" font-size="14.00" fill="#000000">ProfessionalService</text>
</g>
<!-- ProfessionalService&#45;&gt;ProfessionalModule -->
<g id="edge11" class="edge">
<title>ProfessionalService&#45;&gt;ProfessionalModule</title>
<path fill="none" stroke="#000000" d="M766.8247,-121.2456C766.8247,-121.2456 766.8247,-151.7629 766.8247,-151.7629"/>
<polygon fill="#000000" stroke="#000000" points="763.3248,-151.7628 766.8247,-161.7629 770.3248,-151.7629 763.3248,-151.7628"/>
</g>
<!-- UserService -->
<g id="node13" class="node">
<title>UserService</title>
<ellipse fill="#fdb462" stroke="#000000" cx="1035" cy="-256" rx="58.4415" ry="18"/>
<text text-anchor="middle" x="1035" y="-251.8" font-family="Times,serif" font-size="14.00" fill="#000000">UserService</text>
</g>
<!-- UserService&#45;&gt;UsersModule -->
<g id="edge13" class="edge">
<title>UserService&#45;&gt;UsersModule</title>
<path fill="none" stroke="#000000" d="M976.5567,-256C945.5777,-256 913.8552,-256 913.8552,-256 913.8552,-256 913.8552,-208.0109 913.8552,-208.0109"/>
<polygon fill="#000000" stroke="#000000" points="917.3553,-208.0109 913.8552,-198.0109 910.3553,-208.011 917.3553,-208.0109"/>
</g>
</g>
</svg>
