<?xml version="1.0" encoding="UTF-8" standalone="no"?>
<!DOCTYPE svg PUBLIC "-//W3C//DTD SVG 1.1//EN"
 "http://www.w3.org/Graphics/SVG/1.1/DTD/svg11.dtd">
<!-- Generated by graphviz version 2.40.1 (20161225.0304)
 -->
<!-- Title: dependencies Pages: 1 -->
<svg width="569pt" height="287pt"
 viewBox="0.00 0.00 569.00 287.00" xmlns="http://www.w3.org/2000/svg" xmlns:xlink="http://www.w3.org/1999/xlink">
<g id="graph0" class="graph" transform="scale(1 1) rotate(0) translate(4 283)">
<title>dependencies</title>
<polygon fill="#ffffff" stroke="transparent" points="-4,4 -4,-283 565,-283 565,4 -4,4"/>
<text text-anchor="start" x="259.5091" y="-42.4" font-family="sans-serif" font-weight="bold" font-size="14.00" fill="#000000">Legend</text>
<polygon fill="#ffffb3" stroke="transparent" points="46.5,-10 46.5,-30 66.5,-30 66.5,-10 46.5,-10"/>
<text text-anchor="start" x="70.129" y="-15.4" font-family="sans-serif" font-size="14.00" fill="#000000"> &#160;Declarations</text>
<polygon fill="#8dd3c7" stroke="transparent" points="159.5,-10 159.5,-30 179.5,-30 179.5,-10 159.5,-10"/>
<text text-anchor="start" x="183.2251" y="-15.4" font-family="sans-serif" font-size="14.00" fill="#000000"> &#160;Module</text>
<polygon fill="#80b1d3" stroke="transparent" points="245.5,-10 245.5,-30 265.5,-30 265.5,-10 245.5,-10"/>
<text text-anchor="start" x="269.2812" y="-15.4" font-family="sans-serif" font-size="14.00" fill="#000000"> &#160;Bootstrap</text>
<polygon fill="#fdb462" stroke="transparent" points="342.5,-10 342.5,-30 362.5,-30 362.5,-10 342.5,-10"/>
<text text-anchor="start" x="366.1732" y="-15.4" font-family="sans-serif" font-size="14.00" fill="#000000"> &#160;Providers</text>
<polygon fill="#fb8072" stroke="transparent" points="438.5,-10 438.5,-30 458.5,-30 458.5,-10 438.5,-10"/>
<text text-anchor="start" x="462.2258" y="-15.4" font-family="sans-serif" font-size="14.00" fill="#000000"> &#160;Exports</text>
<g id="clust1" class="cluster">
<title>cluster_AppModule</title>
<polygon fill="none" stroke="#000000" stroke-dasharray="1,5" points="8,-146 8,-271 553,-271 553,-146 8,-146"/>
</g>
<g id="clust3" class="cluster">
<title>cluster_AppModule_imports</title>
<polygon fill="none" stroke="#000000" points="154,-154 154,-206 545,-206 545,-154 154,-154"/>
</g>
<g id="clust6" class="cluster">
<title>cluster_AppModule_providers</title>
<polygon fill="none" stroke="#000000" points="16,-154 16,-206 146,-206 146,-154 16,-154"/>
</g>
<g id="clust13" class="cluster">
<title>cluster_PatientModule</title>
<polygon fill="none" stroke="#000000" stroke-dasharray="1,5" points="96,-70 96,-138 262,-138 262,-70 96,-70"/>
</g>
<g id="clust18" class="cluster">
<title>cluster_PatientModule_providers</title>
<polygon fill="none" stroke="#000000" points="104,-78 104,-130 254,-130 254,-78 104,-78"/>
</g>
<g id="clust19" class="cluster">
<title>cluster_ProfessionalModule</title>
<polygon fill="none" stroke="#000000" stroke-dasharray="1,5" points="270,-70 270,-138 478,-138 478,-70 270,-70"/>
</g>
<g id="clust24" class="cluster">
<title>cluster_ProfessionalModule_providers</title>
<polygon fill="none" stroke="#000000" points="278,-78 278,-130 470,-130 470,-78 278,-78"/>
</g>
<!-- CommonModule -->
<g id="node1" class="node">
<title>CommonModule</title>
<polygon fill="#8dd3c7" stroke="#000000" points="536.6681,-198 533.6681,-202 512.6681,-202 509.6681,-198 425.3319,-198 425.3319,-162 536.6681,-162 536.6681,-198"/>
<text text-anchor="middle" x="481" y="-175.8" font-family="Times,serif" font-size="14.00" fill="#000000">CommonModule</text>
</g>
<!-- AppModule -->
<g id="node4" class="node">
<title>AppModule</title>
<polygon fill="#8dd3c7" stroke="#000000" points="318.6571,-263 315.6571,-267 294.6571,-267 291.6571,-263 235.3429,-263 235.3429,-227 318.6571,-227 318.6571,-263"/>
<text text-anchor="middle" x="277" y="-240.8" font-family="Times,serif" font-size="14.00" fill="#000000">AppModule</text>
</g>
<!-- CommonModule&#45;&gt;AppModule -->
<g id="edge1" class="edge">
<title>CommonModule&#45;&gt;AppModule</title>
<path fill="none" stroke="#000000" d="M481,-198.1061C481,-217.3391 481,-245 481,-245 481,-245 328.7747,-245 328.7747,-245"/>
<polygon fill="#000000" stroke="#000000" points="328.7747,-241.5001 318.7747,-245 328.7747,-248.5001 328.7747,-241.5001"/>
</g>
<!-- PatientModule -->
<g id="node2" class="node">
<title>PatientModule</title>
<polygon fill="#8dd3c7" stroke="#000000" points="260.4344,-198 257.4344,-202 236.4344,-202 233.4344,-198 161.5656,-198 161.5656,-162 260.4344,-162 260.4344,-198"/>
<text text-anchor="middle" x="211" y="-175.8" font-family="Times,serif" font-size="14.00" fill="#000000">PatientModule</text>
</g>
<!-- PatientModule&#45;&gt;AppModule -->
<g id="edge2" class="edge">
<title>PatientModule&#45;&gt;AppModule</title>
<path fill="none" stroke="#000000" d="M247.6943,-198.1061C247.6943,-198.1061 247.6943,-216.991 247.6943,-216.991"/>
<polygon fill="#000000" stroke="#000000" points="244.1943,-216.9909 247.6943,-226.991 251.1943,-216.991 244.1943,-216.9909"/>
</g>
<!-- ProfessionalModule -->
<g id="node3" class="node">
<title>ProfessionalModule</title>
<polygon fill="#8dd3c7" stroke="#000000" points="407.2534,-198 404.2534,-202 383.2534,-202 380.2534,-198 278.7466,-198 278.7466,-162 407.2534,-162 407.2534,-198"/>
<text text-anchor="middle" x="343" y="-175.8" font-family="Times,serif" font-size="14.00" fill="#000000">ProfessionalModule</text>
</g>
<!-- ProfessionalModule&#45;&gt;AppModule -->
<g id="edge3" class="edge">
<title>ProfessionalModule&#45;&gt;AppModule</title>
<path fill="none" stroke="#000000" d="M298.7258,-198.1061C298.7258,-198.1061 298.7258,-216.991 298.7258,-216.991"/>
<polygon fill="#000000" stroke="#000000" points="295.2259,-216.9909 298.7258,-226.991 302.2259,-216.991 295.2259,-216.9909"/>
</g>
<!-- AppService -->
<g id="node5" class="node">
<title>AppService</title>
<ellipse fill="#fdb462" stroke="#000000" cx="81" cy="-180" rx="56.7406" ry="18"/>
<text text-anchor="middle" x="81" y="-175.8" font-family="Times,serif" font-size="14.00" fill="#000000">AppService</text>
</g>
<!-- AppService&#45;&gt;AppModule -->
<g id="edge4" class="edge">
<title>AppService&#45;&gt;AppModule</title>
<path fill="none" stroke="#000000" d="M81,-198.1061C81,-217.3391 81,-245 81,-245 81,-245 224.9531,-245 224.9531,-245"/>
<polygon fill="#000000" stroke="#000000" points="224.9531,-248.5001 234.9531,-245 224.953,-241.5001 224.9531,-248.5001"/>
</g>
<!-- PatientService -->
<g id="node6" class="node">
<title>PatientService</title>
<ellipse fill="#fdb462" stroke="#000000" cx="179" cy="-104" rx="66.6267" ry="18"/>
<text text-anchor="middle" x="179" y="-99.8" font-family="Times,serif" font-size="14.00" fill="#000000">PatientService</text>
</g>
<!-- PatientService&#45;&gt;PatientModule -->
<g id="edge5" class="edge">
<title>PatientService&#45;&gt;PatientModule</title>
<path fill="none" stroke="#000000" d="M203.7982,-120.8669C203.7982,-120.8669 203.7982,-151.8535 203.7982,-151.8535"/>
<polygon fill="#000000" stroke="#000000" points="200.2983,-151.8534 203.7982,-161.8535 207.2983,-151.8535 200.2983,-151.8534"/>
</g>
<!-- ProfessionalService -->
<g id="node7" class="node">
<title>ProfessionalService</title>
<ellipse fill="#fdb462" stroke="#000000" cx="374" cy="-104" rx="87.9549" ry="18"/>
<text text-anchor="middle" x="374" y="-99.8" font-family="Times,serif" font-size="14.00" fill="#000000">ProfessionalService</text>
</g>
<!-- ProfessionalService&#45;&gt;ProfessionalModule -->
<g id="edge6" class="edge">
<title>ProfessionalService&#45;&gt;ProfessionalModule</title>
<path fill="none" stroke="#000000" d="M346.8247,-121.2456C346.8247,-121.2456 346.8247,-151.7629 346.8247,-151.7629"/>
<polygon fill="#000000" stroke="#000000" points="343.3248,-151.7628 346.8247,-161.7629 350.3248,-151.7629 343.3248,-151.7628"/>
</g>
</g>
</svg>
